<svg width="21" height="21" viewBox="0 0 21 21" fill="none" xmlns="http://www.w3.org/2000/svg">
<path d="M0 5.25C0 4.55381 0.276562 3.88613 0.768845 3.39384C1.26113 2.90156 1.92881 2.625 2.625 2.625H18.375C19.0712 2.625 19.7389 2.90156 20.2312 3.39384C20.7234 3.88613 21 4.55381 21 5.25V15.75C21 16.4462 20.7234 17.1139 20.2312 17.6062C19.7389 18.0984 19.0712 18.375 18.375 18.375H2.625C1.92881 18.375 1.26113 18.0984 0.768845 17.6062C0.276562 17.1139 0 16.4462 0 15.75V5.25ZM2.625 3.9375C2.2769 3.9375 1.94306 4.07578 1.69692 4.32192C1.45078 4.56806 1.3125 4.9019 1.3125 5.25V5.53481L10.5 11.0473L19.6875 5.53481V5.25C19.6875 4.9019 19.5492 4.56806 19.3031 4.32192C19.0569 4.07578 18.7231 3.9375 18.375 3.9375H2.625ZM19.6875 7.06519L13.5082 10.773L19.6875 14.5753V7.06519ZM19.6429 16.0899L12.2404 11.5343L10.5 12.5777L8.75962 11.5343L1.35713 16.0886C1.43171 16.3679 1.59642 16.6148 1.82567 16.7909C2.05493 16.967 2.33592 17.0625 2.625 17.0625H18.375C18.6639 17.0625 18.9448 16.9672 19.174 16.7914C19.4032 16.6156 19.568 16.369 19.6429 16.0899ZM1.3125 14.5753L7.49175 10.773L1.3125 7.06519V14.5753Z" fill="white"/>
</svg>
