<svg width="21" height="21" viewBox="0 0 21 21" fill="none" xmlns="http://www.w3.org/2000/svg">
<path d="M10.5669 2.62305H10.6838C11.7626 2.62698 17.2292 2.66636 18.7031 3.06273C19.1487 3.18371 19.5547 3.4195 19.8806 3.74656C20.2066 4.07361 20.4409 4.48048 20.5603 4.92648C20.6929 5.42523 20.7861 6.08542 20.8491 6.76661L20.8622 6.90311L20.8911 7.24436L20.9016 7.38086C20.9869 8.58048 20.9974 9.70398 20.9987 9.94942V10.0479C20.9974 10.3025 20.9856 11.5021 20.8911 12.7516L20.8806 12.8894L20.8687 13.0259C20.8031 13.7767 20.706 14.5222 20.5603 15.0708C20.4413 15.517 20.207 15.924 19.8811 16.2512C19.5551 16.5783 19.1489 16.8139 18.7031 16.9345C17.1806 17.344 11.3938 17.3729 10.5919 17.3742H10.4055C9.99994 17.3742 8.32256 17.3664 6.56381 17.306L6.34069 17.2981L6.2265 17.2929L6.00206 17.2837L5.77762 17.2745C4.32075 17.2102 2.93344 17.1065 2.29425 16.9332C1.84864 16.8127 1.44252 16.5773 1.11658 16.2504C0.790628 15.9235 0.556299 15.5167 0.437063 15.0708C0.291375 14.5235 0.19425 13.7767 0.128625 13.0259L0.118125 12.8881L0.107625 12.7516C0.04285 11.8623 0.00695607 10.971 0 10.0794L0 9.91792C0.002625 9.63573 0.013125 8.66055 0.084 7.5843L0.0931875 7.44911L0.097125 7.38086L0.107625 7.24436L0.1365 6.90311L0.149625 6.76661C0.212625 6.08542 0.305812 5.42392 0.438375 4.92648C0.55741 4.4803 0.79165 4.07324 1.11761 3.74613C1.44357 3.41902 1.8498 3.18334 2.29556 3.06273C2.93475 2.89211 4.32206 2.78711 5.77894 2.72148L6.00206 2.7123L6.22781 2.70442L6.34069 2.70048L6.56512 2.6913C7.81424 2.6511 9.06387 2.62879 10.3136 2.62436H10.5669V2.62305ZM8.4 6.83617V13.1598L13.8561 9.9993L8.4 6.83617Z" fill="white"/>
</svg>
