<svg width="61" height="61" viewBox="0 0 61 61" fill="none" xmlns="http://www.w3.org/2000/svg">
<path d="M34.4134 6.83431C33.0298 6.23056 31.6462 5.82806 30.2123 5.55134L36.4762 2.25586L38.7403 9.52604C37.4234 8.44145 35.9684 7.53631 34.4134 6.83431ZM15.6468 8.84682C14.4141 9.72729 13.3324 10.7335 12.4016 11.8656L12.6783 4.77149L20.1246 6.50728C18.5649 7.0104 17.0555 7.81541 15.6468 8.84682ZM45.608 22.1042C45.3816 20.6451 45.0545 19.1861 44.5766 17.8276L50.5638 21.6011L45.4067 27.2109C45.6834 25.5506 45.7338 23.84 45.608 22.1042ZM7.97412 26.1041C8.15021 27.6134 8.5024 29.0725 8.95521 30.4058L2.99316 26.6323L8.12505 21.0225C7.87349 22.6576 7.79802 24.3934 7.97412 26.1041ZM42.2873 56.0149C42.2873 58.5054 40.3503 60.5179 37.9353 60.5179C35.5454 60.5179 33.6084 58.5054 33.6084 56.0149C33.6084 53.0465 37.9353 48.0152 37.9353 48.0152C37.9353 48.0152 42.2873 53.0465 42.2873 56.0149ZM15.4959 54.103C15.2443 53.1471 15.7977 52.166 16.7788 51.9144L20.7787 50.8327L17.8354 47.9397C17.6681 47.7758 17.5351 47.5801 17.4444 47.3641C17.3536 47.1481 17.3069 46.9162 17.3069 46.6819C17.3069 46.4477 17.3536 46.2157 17.4444 45.9997C17.5351 45.7838 17.6681 45.5881 17.8354 45.4241C18.5146 44.6694 19.697 44.6694 20.4517 45.4241L23.3195 48.2919L24.3509 44.3172C24.6024 43.3361 25.6087 42.7575 26.5646 43.0343C27.5457 43.2858 28.1243 44.2921 27.8225 45.248L26.7407 49.1976L30.7657 48.1913C31.772 47.9397 32.7279 48.468 33.0298 49.4491C33.1302 49.9153 33.0478 50.4022 32.7997 50.8094C32.5517 51.2166 32.1568 51.5131 31.6965 51.6377L27.7218 52.6943L30.64 55.6124C31.3443 56.2916 31.3443 57.474 30.64 58.1784C29.9356 58.8827 28.7784 58.8827 28.074 58.1784L25.1559 55.2351L24.0993 59.2601C23.8478 60.216 22.8415 60.7695 21.8856 60.5179C20.9045 60.2663 20.3762 59.2601 20.6026 58.3042L21.7095 54.3546L17.7096 55.386C16.6782 55.6376 15.7474 55.0841 15.4959 54.103ZM48.1236 37.9527C47.2431 37.9527 46.3878 38.0785 45.608 38.3552V37.9527C45.608 33.3742 43.5703 29.2738 40.3755 26.5569C41.4572 20.3936 38.3126 14.0542 32.4009 11.4631C25.4075 8.36885 17.2316 11.5385 14.1626 18.4565C11.8985 23.4626 12.9048 28.997 16.0996 32.9214H15.4204C9.86084 32.9214 5.35786 37.3992 5.35786 42.9839C5.35786 45.8518 6.61567 48.4429 8.55271 50.2793C8.55271 50.2793 10.3137 52.0654 12.0998 50.2793C13.8859 48.4932 12.0998 46.6819 12.0998 46.6819C11.0683 45.8015 10.3891 44.4682 10.3891 42.9839C10.3891 41.6496 10.9192 40.3699 11.8627 39.4263C12.8063 38.4828 14.086 37.9527 15.4204 37.9527H20.4517C20.4517 32.368 24.9546 27.8902 30.5142 27.8902C33.1829 27.8902 35.7424 28.9503 37.6295 30.8374C39.5166 32.7245 40.5767 35.2839 40.5767 37.9527V42.9839H48.1236C48.7908 42.9839 49.4307 43.249 49.9024 43.7208C50.3742 44.1925 50.6392 44.8324 50.6392 45.4996C50.6392 46.858 49.5072 48.0152 48.1236 48.0152H45.608C45.608 48.0152 43.0923 48.0152 43.0923 50.5308C43.0923 53.0465 45.608 53.0465 45.608 53.0465H48.1236C50.1252 53.0465 52.0448 52.2514 53.4601 50.836C54.8754 49.4207 55.6705 47.5011 55.6705 45.4996C55.6705 41.3236 52.2996 37.9527 48.1236 37.9527ZM30.5142 22.8589C25.8854 22.8589 21.7095 24.9217 18.9674 28.2172C18.3428 27.0332 17.9956 25.7226 17.952 24.3847C17.9084 23.0467 18.1696 21.7163 18.7159 20.4942C19.186 19.4382 19.8597 18.4852 20.6984 17.6898C21.5372 16.8943 22.5245 16.272 23.6039 15.8585C24.6833 15.445 25.8337 15.2483 26.9892 15.2797C28.1447 15.3111 29.2827 15.57 30.3381 16.0415C31.8304 16.7142 33.1071 17.7873 34.0264 19.1417C34.9456 20.4962 35.4715 22.0789 35.5454 23.7142C33.9858 23.1608 32.2751 22.8589 30.5142 22.8589Z" fill="#537A15"/>
</svg>
