<svg width="67" height="66" viewBox="0 0 67 66" fill="none" xmlns="http://www.w3.org/2000/svg">
<path d="M55.2835 32.9739C55.2835 27.1762 52.9803 21.6159 48.8807 17.5163C44.7811 13.4167 39.2208 11.1135 33.4231 11.1135C27.6254 11.1135 22.0651 13.4167 17.9655 17.5163C13.8659 21.6159 11.5627 27.1762 11.5627 32.9739C11.5627 38.7716 13.8659 44.3319 17.9655 48.4315C22.0651 52.5311 27.6254 54.8343 33.4231 54.8343C39.2208 54.8343 44.7811 52.5311 48.8807 48.4315C52.9803 44.3319 55.2835 38.7716 55.2835 32.9739ZM60.7486 32.9739C60.7486 40.2211 57.8696 47.1714 52.7451 52.2959C47.6206 57.4204 40.6703 60.2993 33.4231 60.2993C29.8347 60.2993 26.2814 59.5926 22.9661 58.2193C19.6508 56.8461 16.6385 54.8333 14.1011 52.2959C8.97658 47.1714 6.09766 40.2211 6.09766 32.9739C6.09766 25.7267 8.97658 18.7764 14.1011 13.6519C19.2256 8.52736 26.1759 5.64844 33.4231 5.64844C37.0115 5.64844 40.5648 6.35523 43.8801 7.72846C47.1954 9.1017 50.2077 11.1145 52.7451 13.6519C55.2825 16.1893 57.2953 19.2016 58.6685 22.5169C60.0418 25.8322 60.7486 29.3855 60.7486 32.9739ZM27.958 26.1425C27.958 28.3286 26.0452 30.2413 23.8592 30.2413C21.6732 30.2413 19.7604 28.3286 19.7604 26.1425C19.7604 23.9565 21.6732 22.0437 23.8592 22.0437C26.0452 22.0437 27.958 23.9565 27.958 26.1425ZM47.0858 26.1425C47.0858 28.3286 45.1731 30.2413 42.987 30.2413C40.801 30.2413 38.8882 28.3286 38.8882 26.1425C38.8882 23.9565 40.801 22.0437 42.987 22.0437C45.1731 22.0437 47.0858 23.9565 47.0858 26.1425ZM33.4231 47.2651C28.6412 47.2651 24.433 45.2703 21.9737 42.3192L25.854 38.439C27.0836 40.4064 30.0074 41.8 33.4231 41.8C36.8388 41.8 39.7626 40.4064 40.9923 38.439L44.8725 42.3192C42.4132 45.2703 38.2051 47.2651 33.4231 47.2651Z" fill="#537A15"/>
</svg>
