<svg width="74" height="73" viewBox="0 0 74 73" fill="none" xmlns="http://www.w3.org/2000/svg">
<path d="M57.9309 42.4487C57.5133 45.3425 56.5006 48.1183 54.9566 50.6012C53.4126 53.084 51.371 55.22 48.9603 56.8745C48.3542 54.359 44.6266 52.2982 39.7473 51.7224C40.2625 48.116 41.3232 44.752 42.0505 42.8124C43.2022 43.5398 44.5356 43.964 46.0509 43.964C56.8096 43.964 55.1428 25.7804 55.1428 25.7804C55.1428 25.7804 53.6275 28.811 49.0816 28.811H46.0509C44.7028 28.8106 43.3791 29.1699 42.2162 29.8519C41.0533 30.5338 40.0934 31.5137 39.4356 32.6904C38.7777 33.867 38.4458 35.1979 38.4739 36.5457C38.5021 37.8935 38.8893 39.2094 39.5957 40.3576C41.5959 38.2665 43.7477 36.3875 46.0509 34.8722C42.0505 38.9029 38.9896 43.964 36.9591 48.813C35.0498 45.0854 32.6556 42.2366 30.8979 40.9334C32.3223 41.5396 33.6557 42.4487 34.9286 43.3579C35.262 42.6306 35.4438 41.8123 35.4438 40.9334C35.2923 32.6599 21.806 33.3569 21.806 33.3569C22.7455 34.6298 23.3213 36.236 23.3213 37.9028V40.9334C23.3213 44.2671 26.0489 46.9947 29.3826 46.9947C30.8979 46.9947 32.2617 46.4491 33.3224 45.4794C34.0194 47.3886 34.5346 49.5707 34.8074 51.6618C29.5947 52.1164 25.5943 54.2378 24.9579 56.9048C19.4119 53.0559 15.7448 46.6613 15.7448 39.4181C15.7448 27.72 25.2609 18.2038 36.9591 18.2038V27.2957L52.1122 15.1732L36.9591 3.05078V12.1426C29.7252 12.1426 22.7876 15.0163 17.6724 20.1314C12.5573 25.2466 9.68359 32.1842 9.68359 39.4181C9.68359 46.652 12.5573 53.5897 17.6724 58.7048C22.7876 63.82 29.7252 66.6936 36.9591 66.6936C50.9908 66.6936 62.5375 56.0865 64.0528 42.4487H57.9309Z" fill="#537A15"/>
</svg>
