<svg width="42" height="42" viewBox="0 0 42 42" fill="none" xmlns="http://www.w3.org/2000/svg">
<mask id="mask0_6_1307" style="mask-type:luminance" maskUnits="userSpaceOnUse" x="0" y="0" width="42" height="42">
<path d="M20.7942 41.6856C32.2568 41.6856 41.5491 32.3933 41.5491 20.9307C41.5491 9.46807 32.2568 0.175781 20.7942 0.175781C9.33159 0.175781 0.0393066 9.46807 0.0393066 20.9307C0.0393066 32.3933 9.33159 41.6856 20.7942 41.6856Z" fill="white"/>
</mask>
<g mask="url(#mask0_6_1307)">
<path d="M0.0393066 0.175781H41.5491V41.6856H0.0393066V0.175781Z" fill="#EEEEEE"/>
<path d="M20.7942 29.9533C25.7778 29.9533 29.8177 25.9133 29.8177 20.9298C29.8177 15.9462 25.7778 11.9062 20.7942 11.9062C15.8107 11.9062 11.7707 15.9462 11.7707 20.9298C11.7707 25.9133 15.8107 29.9533 20.7942 29.9533Z" fill="#D80027"/>
</g>
</svg>
