<svg width="42" height="42" viewBox="0 0 42 42" fill="none" xmlns="http://www.w3.org/2000/svg">
<mask id="mask0_6_1307" style="mask-type:luminance" maskUnits="userSpaceOnUse" x="0" y="0" width="42" height="42">
<path d="M20.7942 41.6856C32.2568 41.6856 41.5491 32.3933 41.5491 20.9307C41.5491 9.46807 32.2568 0.175781 20.7942 0.175781C9.33159 0.175781 0.0393066 9.46807 0.0393066 20.9307C0.0393066 32.3933 9.33159 41.6856 20.7942 41.6856Z" fill="white"/>
</mask>
<g mask="url(#mask0_6_1307)">
<path d="M0.0393066 0.175781H10.8708L13.7327 1.52971L16.2784 0.175781H41.5491V18.2228L39.7168 20.7929L41.5491 23.6385V41.6856H16.2784L13.684 40.0803L10.8708 41.6856H0.0393066V23.6385L1.83104 20.9388L0.0393066 18.2228V0.175781Z" fill="#0052B4"/>
<path d="M10.8708 0.175781V18.2228H0.0393066V23.6385H10.8708V41.6856H16.2784V23.6385H41.5491V18.2228H16.2784V0.175781H10.8708Z" fill="#FFDA44"/>
</g>
</svg>
