<svg width="3706" height="1395" viewBox="0 0 3706 1395" fill="none" xmlns="http://www.w3.org/2000/svg">
<path d="M442.744 1182.22C421.054 1122.76 399.656 1064.06 378.28 1005.36C341.332 903.885 304.46 802.383 267.439 700.934C234.514 610.708 201.39 520.553 168.435 430.337C153.385 389.135 139.545 347.457 123.31 306.73C106.338 264.157 89.7646 221.287 67.563 181.011C62.7791 172.333 57.0289 164.03 50.722 156.381C37.9379 140.875 21.7701 131.089 0.499466 130.733C0.330383 127.035 0.182694 123.806 0 119.811C156.952 119.811 313.434 119.811 470.669 119.811C470.669 122.989 470.669 126.411 470.669 130.208C460.921 131.138 451.062 131.847 441.266 133.064C422.898 135.345 405.418 140.508 390.143 151.321C364.507 169.468 356.404 195.689 357.608 225.516C358.597 250.013 365.783 273.232 374.291 296.045C405.651 380.129 437.032 464.205 468.387 548.29C499.154 630.797 529.899 713.311 560.659 795.82C561.121 797.061 561.648 798.279 562.491 800.361C563.97 798.66 565.247 797.474 566.19 796.064C589.279 761.549 605.865 723.877 620.003 685.021C642.551 623.049 657.057 558.909 671.511 494.739C684.06 439.03 696.328 383.243 710.007 327.809C723.485 273.187 741.16 219.897 767.445 169.853C792.732 121.712 825.257 79.7286 871.255 49.465C905.09 27.2045 942.286 13.585 982.115 6.66263C1009.4 1.92001 1036.89 -0.168379 1064.51 0.413469C1107.12 1.31146 1149.29 6.65743 1191.02 15.2742C1243.51 26.1115 1294.96 40.7006 1345.51 58.4897C1346.63 58.8843 1347.76 59.2593 1349.76 59.9422C1339.1 67.1142 1329.09 73.5847 1319.36 80.4363C1282.62 106.285 1251.03 137.481 1223.46 172.869C1200.67 202.109 1181.74 233.709 1164.5 266.458C1143.97 305.447 1119.46 341.709 1089.67 374.384C1067.07 399.17 1041.81 420.443 1012.84 437.394C973.223 460.579 930.517 470.939 884.782 468.146C871.945 467.362 859.217 464.783 845.112 462.845C846.744 458.956 847.677 456.269 848.955 453.758C872.375 407.715 899.127 363.65 928.159 320.959C952.111 285.738 977.793 251.805 1006.27 220.119C1044.91 177.137 1086.57 137.595 1137.3 108.781C1140.77 106.811 1144.31 104.975 1147.81 103.065C1150.98 101.337 1154.14 99.5934 1157.13 97.3869C1146.81 98.4459 1137.5 102.723 1128.17 106.762C1082.81 126.41 1043.07 154.702 1006.04 187.013C992.51 198.817 979.034 210.775 966.493 223.599C937.429 253.32 909.925 284.455 884.505 317.397C831.324 386.313 785.202 459.746 743.691 536.183C708.101 601.714 676.053 668.93 646.102 737.203C618.176 800.861 594.66 866.234 569.563 930.995C552.028 976.245 534.447 1021.48 516.976 1066.75C502.371 1104.6 487.901 1142.5 473.351 1180.36C472.292 1183.12 471.066 1185.81 469.692 1189.07C463.191 1189.07 456.894 1188.81 450.629 1189.15C445.902 1189.41 444.078 1186.86 442.744 1182.22Z" fill="white"/>
<path d="M2060.6 944.276C2052.06 956.556 2055.09 967.651 2062.19 978.309C2067.83 986.78 2075.79 992.864 2084.37 998.1C2106.3 1011.5 2130.48 1018.5 2155.58 1022.75C2174.3 1025.92 2193.15 1027.09 2212.16 1027.2C2243.43 1027.37 2274.73 1027.69 2305.95 1029.25C2342.08 1031.07 2378.2 1033.66 2413.77 1040.98C2441.59 1046.7 2468.7 1054.39 2493.3 1069.2C2526.47 1089.17 2544.54 1118.64 2547.63 1157.03C2549.83 1184.46 2547.38 1211.49 2537.64 1237.56C2529.63 1258.99 2517.95 1278.14 2502.71 1295.18C2472.19 1329.33 2433.57 1350.9 2391.2 1366.27C2354.48 1379.6 2316.43 1387.15 2277.55 1391.28C2247.34 1394.5 2217.09 1395.09 2186.87 1394.09C2144.67 1392.69 2102.7 1388.31 2061.88 1376.62C2037.77 1369.72 2014.69 1360.47 1994.09 1345.71C1971.85 1329.78 1956.34 1309.19 1950.83 1282.13C1941.98 1238.69 1957.15 1204.46 1997.6 1183.49C2007.55 1178.33 2018.08 1174.31 2028.71 1169.6C2027.24 1168.81 2025.89 1167.87 2024.39 1167.29C1991.26 1154.33 1970.67 1129.88 1961.53 1096.16C1947.87 1045.73 1960.9 1001.69 1996.09 963.82C2016.02 942.369 2040.71 928.315 2068.12 918.686C2069.68 918.139 2071.17 917.422 2073.65 916.386C2071.31 914.374 2069.54 912.714 2067.64 911.229C2024.18 877.384 1993.5 834.835 1982.25 780.362C1968.35 713.067 1984.23 652.393 2027.65 599.363C2066.23 552.253 2116.74 524.38 2175.66 511.128C2202.08 505.187 2228.93 503.235 2255.91 505.147C2319.54 509.656 2376.7 530.915 2424.37 574.022C2467.77 613.27 2493.77 662.081 2497.7 721.027C2501.84 783.035 2481.49 836.791 2439.47 882.364C2395.98 929.536 2341.39 955.472 2278.55 964.539C2223.17 972.53 2169.97 963.505 2118.83 941.347C2113.35 938.972 2107.91 936.466 2102.59 933.758C2097.56 931.201 2092.71 928.297 2087.3 925.281C2077.57 929.8 2067.53 934.095 2060.6 944.276ZM2333.41 814.621C2331.58 803.515 2329.93 792.377 2327.9 781.308C2317.67 725.593 2302.5 671.324 2279.15 619.594C2268.2 595.329 2256.16 571.546 2238.8 551.024C2230.64 541.373 2222.16 531.957 2210.47 526.253C2191.65 517.074 2173.73 521.929 2163.59 540.245C2159.16 548.235 2156.18 557.308 2154.09 566.251C2147.66 593.793 2149.25 621.766 2152.32 649.483C2157.67 697.781 2168.65 744.948 2184 791.05C2196.85 829.634 2212.84 866.815 2235.4 900.856C2244.99 915.329 2255.95 928.683 2270.4 938.694C2293.14 954.452 2316.73 948.088 2327.05 923.769C2332.72 910.406 2335.62 896.457 2335.93 882.141C2336.41 860.215 2336.81 838.237 2333.41 814.621ZM2403.21 1305.35C2406.36 1297.34 2410.34 1289.53 2412.5 1281.26C2418.49 1258.32 2409.93 1235.38 2390.85 1221.32C2379.99 1213.33 2367.81 1208.28 2354.75 1204.97C2335.23 1200.01 2315.23 1200.39 2295.38 1199.14C2277.16 1197.99 2258.9 1197.47 2240.66 1196.58C2217.79 1195.46 2194.92 1194.29 2172.06 1193.05C2153.82 1192.06 2135.57 1191.29 2117.39 1189.63C2112.31 1189.16 2109.12 1190.45 2106.09 1193.87C2085.58 1217.05 2079.37 1243.83 2087.02 1273.56C2097.22 1313.16 2122.68 1340.74 2158.28 1358.91C2205.29 1382.91 2254.94 1386.32 2305.68 1373.58C2346.12 1363.42 2379.63 1342.57 2403.21 1305.35Z" fill="white"/>
<path d="M1322.65 1120.02C1294.92 1067.38 1309.1 1002.86 1347.8 963.803C1368.43 942.992 1392.48 928.378 1419.88 918.765C1421.43 918.218 1422.95 917.535 1425.58 916.472C1421.44 913.034 1417.87 910.003 1414.23 907.053C1374.53 874.854 1346.39 834.871 1335.09 784.644C1318.93 712.806 1336.27 648.878 1384.43 593.59C1424.4 547.709 1475.56 520.706 1534.94 509.793C1606.62 496.619 1674.57 507.813 1737.49 545.278C1776.39 568.438 1807.16 599.916 1827.33 640.569C1854.18 694.694 1858.16 750.939 1837.22 807.862C1815.91 865.808 1775.48 907.096 1721.33 935.56C1672.88 961.02 1621.16 970.74 1566.89 966.171C1524.34 962.589 1484.15 950.371 1446.76 929.441C1444.44 928.142 1442.05 926.96 1439.28 925.504C1430.22 928.4 1422.14 933.278 1415.42 940.448C1406.03 950.461 1404.62 962.296 1411.57 974.341C1418.84 986.926 1430.17 994.958 1442.59 1001.72C1467.54 1015.32 1494.64 1021.84 1522.57 1024.86C1537.41 1026.47 1552.42 1026.6 1567.37 1027.02C1596.63 1027.84 1625.92 1027.81 1655.15 1029.2C1698.29 1031.25 1741.35 1034.47 1783.48 1044.96C1805.2 1050.37 1826.29 1057.52 1845.45 1069.34C1877.23 1088.95 1895.76 1117.34 1899.32 1154.61C1903.46 1198.04 1894.74 1238.7 1870.12 1275.21C1851.35 1303.04 1826.33 1324.21 1797.47 1340.98C1755.51 1365.37 1709.81 1378.87 1662.31 1387.03C1621.16 1394.11 1579.61 1395.72 1538.05 1394.1C1489.83 1392.21 1441.91 1387.22 1395.96 1370.89C1375.15 1363.49 1355.37 1354.2 1338.32 1339.81C1317.41 1322.16 1304.6 1300.37 1301.2 1272.75C1298.42 1250.23 1302.04 1229.65 1315.47 1211.36C1326.13 1196.84 1340.66 1186.81 1356.92 1179.41C1364.46 1175.97 1372.36 1173.32 1381.58 1169.74C1355.51 1160.16 1335.93 1144.25 1322.65 1120.02ZM1531.73 778.156C1539.96 800.262 1547.51 822.652 1556.59 844.401C1567.38 870.233 1580.91 894.707 1598.86 916.415C1607.14 926.431 1616.17 935.731 1627.74 942.142C1645.89 952.189 1664.38 947.674 1675.46 930.264C1677.23 927.478 1679.01 924.473 1679.8 921.323C1682.58 910.104 1686.13 898.891 1687.21 887.47C1689.92 858.895 1687.77 830.358 1683.34 802.05C1675.83 754.067 1664.26 707.078 1647.8 661.348C1635.61 627.473 1621.28 594.591 1600.93 564.69C1591.35 550.606 1580.61 537.481 1565.91 528.224C1558.99 523.867 1551.56 521.476 1543.31 521.851C1527.7 522.56 1518.6 532.074 1512.46 545.142C1504.99 561.052 1502.88 578.208 1502.13 595.501C1500.72 627.864 1503.94 659.99 1510.4 691.579C1516.24 720.151 1524.3 748.267 1531.73 778.156ZM1606.27 1197.07C1602.27 1197.02 1598.27 1197.09 1594.28 1196.89C1570.4 1195.65 1546.52 1194.43 1522.65 1193.04C1504.41 1191.98 1486.17 1190.9 1467.98 1189.32C1463.61 1188.93 1461.1 1190.54 1458.54 1193.32C1450.81 1201.75 1444.68 1211.17 1440.86 1222C1431.93 1247.33 1435.1 1271.93 1446.51 1295.52C1463.29 1330.23 1491.31 1353.12 1526.71 1366.58C1575.76 1385.23 1625.62 1385.73 1675.12 1368.2C1707.6 1356.7 1734.98 1337.65 1753.4 1307.77C1763.99 1290.6 1769.76 1272.03 1763.87 1251.65C1757.34 1229.06 1740.54 1217.02 1719.71 1209.04C1696.53 1200.16 1672.12 1200.67 1647.97 1199.1C1634.72 1198.25 1621.43 1197.74 1606.27 1197.07Z" fill="white"/>
<path d="M3003.2 986.7C3030.09 978.281 3053.25 965.158 3073.04 946.052C3084.12 935.353 3093.57 923.479 3101.58 910.389C3103.47 907.297 3105.29 904.158 3107.13 901.057C3113.79 904.695 3114.04 904.808 3111.21 911.198C3100.27 935.892 3087.5 959.491 3070.44 980.655C3020.48 1042.65 2955.41 1076.49 2876.72 1085.09C2811.66 1092.21 2750.12 1080.29 2692.74 1049.14C2626.25 1013.04 2581.27 958.862 2559.63 885.876C2548.92 849.775 2546.13 812.917 2547.97 775.489C2549.62 741.754 2555.35 708.91 2567.48 677.268C2592.07 613.136 2636.4 568.509 2699.96 542.824C2734.2 528.987 2769.93 522.069 2806.71 520.322C2820.32 519.675 2833.97 518.847 2847.58 519.186C2883.67 520.084 2919.08 525.273 2952.77 538.982C2995.96 556.558 3030.81 584.286 3054.63 624.802C3064.68 641.888 3070.04 660.478 3072.36 680.35C3075.36 705.963 3069.37 729.298 3057.11 751.133C3044.94 772.82 3024.96 785.073 3001.98 793.107C2977.97 801.494 2952.92 804.843 2928.04 809.017C2897.54 814.133 2867.13 819.499 2837.9 830.113C2813.59 838.939 2791.36 851.304 2771.44 867.789C2770.43 868.619 2769.62 869.679 2768.36 871.01C2771.83 881.116 2777.95 889.762 2783.9 898.439C2808.73 934.693 2840.48 962.717 2881.47 979.526C2900.04 987.145 2919.31 991.479 2939.42 993.327C2961.01 995.311 2981.73 992.062 3003.2 986.7ZM2852.75 805.049C2864.99 796.879 2875.88 787.122 2885.62 776.152C2906.9 752.182 2919.1 724.231 2919.26 692.03C2919.43 659.632 2913.33 628.019 2903.93 597.065C2899.17 581.396 2892.66 566.583 2882.46 553.528C2872.41 540.679 2859.97 532.042 2843.58 529.592C2833.18 528.036 2823.01 529.567 2812.99 532.042C2783.53 539.319 2765.02 559.331 2752.34 585.536C2736.1 619.102 2731.89 655.348 2730.18 691.954C2729.21 712.877 2731.18 733.734 2733.32 754.58C2736.69 787.526 2744.63 819.22 2757.5 849.698C2758.62 852.348 2760.01 854.885 2761.59 858.126C2763.87 856.526 2765.5 855.51 2766.98 854.315C2782.9 841.531 2800.52 831.666 2818.99 823.071C2830.11 817.898 2840.72 811.646 2852.75 805.049Z" fill="white"/>
<path d="M1107.46 531.034C1126.02 536.874 1143.33 543.588 1159.43 553.169C1190.94 571.923 1217.31 596.177 1234.29 628.839C1255.02 668.709 1257.23 709.595 1235.23 750.139C1225.11 768.78 1209 780.7 1189.93 789.075C1170.58 797.577 1150 801.433 1129.36 805.073C1096.66 810.841 1063.63 814.99 1031.71 824.64C1002.81 833.374 975.884 845.95 952.346 865.156C950.067 867.016 947.979 869.109 945.561 871.313C953.636 889.037 964.594 904.47 976.772 918.924C1001.45 948.214 1031.58 970.008 1067.87 982.957C1135.52 1007.09 1209.18 991.061 1258.33 938.367C1263.51 932.807 1268.09 926.622 1272.5 920.413C1276.91 914.215 1280.76 907.622 1285.03 900.936C1291.31 903.187 1290.47 907.087 1288.37 911.899C1278.76 933.931 1267.45 954.973 1252.91 974.179C1206.9 1034.92 1145.87 1070.66 1070.98 1083C1013.21 1092.52 956.933 1086.21 902.706 1064.43C834.523 1037.05 782.929 991.207 751.429 924.153C738.928 897.542 731.067 869.455 727.472 840.212C724.252 814.009 724.199 787.656 726.304 761.497C730.226 712.769 743.624 666.874 771.656 626.046C794.181 593.24 823.56 568.439 859.216 550.952C898.63 531.622 940.546 522.444 984.166 520.317C996.776 519.703 1009.41 519.048 1022.02 519.151C1050.72 519.387 1079.01 522.972 1107.46 531.034ZM1093.58 652.302C1090.32 636.392 1087.62 620.341 1083.66 604.608C1078.77 585.165 1071.17 566.781 1058.14 551.106C1046.45 537.037 1031.63 528.954 1013.18 529.15C977.743 529.527 951.862 546.393 934.544 576.694C915.596 609.846 910.034 646.549 908.295 683.875C907.447 702.073 908.57 720.401 909.513 738.634C911.306 773.327 918.27 807.004 930.925 839.423C933.291 845.486 935.916 851.448 938.795 858.351C942.377 855.716 945.057 853.861 947.612 851.846C962.596 840.028 979.072 830.641 996.568 823.265C1020.2 813.301 1041.22 799.548 1058.74 780.95C1086.76 751.201 1100.67 716.18 1096.08 674.797C1095.32 667.883 1094.67 660.956 1093.58 652.302Z" fill="white"/>
<path d="M3410.08 735C3410.08 805.66 3409.67 875.324 3410.29 944.978C3410.51 969.209 3413.95 993.215 3423.17 1016.11C3436.6 1049.48 3461.99 1065.37 3496.86 1068.1C3500.82 1068.41 3504.77 1068.82 3508.8 1069.2C3509.24 1070.25 3509.83 1071.11 3509.93 1072.02C3510.1 1073.62 3509.98 1075.26 3509.98 1077.59C3376.63 1077.59 3243.87 1077.59 3110.66 1077.59C3110.46 1075.15 3110.27 1072.92 3110.08 1070.61C3111.15 1070.05 3111.96 1069.33 3112.84 1069.22C3123.05 1067.91 3133.38 1067.29 3143.46 1065.34C3174.35 1059.36 3193.07 1039.98 3201.84 1010.4C3206.96 993.132 3209.74 975.362 3209.95 957.403C3210.68 895.129 3211.53 832.846 3211.16 770.574C3211 743.416 3208.57 716.183 3199.94 690.039C3192.79 668.373 3182.26 648.893 3161.55 637.278C3154.74 633.454 3146.83 631.527 3139.32 629.01C3135.92 627.869 3132.29 627.404 3128.91 626.665C3128.35 618.207 3128.33 618.151 3136.3 615.243C3175.02 601.121 3213.75 587.049 3252.47 572.926C3299.31 555.838 3346.12 538.66 3393.01 521.696C3397.88 519.937 3403.17 519.37 3409.91 517.888C3410.26 535.754 3409.94 552.225 3410.14 570.146C3411.93 568.621 3412.9 567.97 3413.66 567.123C3433.07 545.337 3457.83 532.125 3485.06 523.215C3519.49 511.951 3554.69 507.634 3590.15 517.067C3636.05 529.276 3668.89 556.614 3678.22 604.763C3686.8 648.958 3673.84 688.019 3639.56 717.871C3609.07 744.421 3559.3 746.149 3525.83 723.415C3507.04 710.653 3495.56 692.929 3492.57 670.285C3499.43 668.843 3506.43 668.108 3512.91 665.863C3528.26 660.546 3539.25 649.792 3544.72 634.73C3554.3 608.333 3551.44 582.982 3534.66 560.003C3522.14 542.857 3505.08 537.631 3484.46 541.813C3449.67 548.871 3431.12 571.971 3421.76 604.342C3415.08 627.468 3412.75 651.283 3411.56 675.18C3410.6 694.763 3410.54 714.392 3410.08 735Z" fill="white"/>
<path d="M3584.39 341.723C3609.67 311.58 3656.23 311.403 3682 333.775C3691.29 341.835 3698.06 351.665 3701.53 363.352C3708.94 388.355 3706.5 412.066 3690.02 433.135C3677.82 448.738 3661.48 456.45 3641.68 457.16C3628.84 457.62 3616.51 456.211 3604.92 450.124C3585.22 439.777 3573.65 423.289 3570.2 401.772C3566.76 380.395 3569.94 359.934 3584.39 341.723ZM3657.35 331.575C3655.1 330.977 3652.87 330.242 3650.59 329.802C3619.17 323.746 3591.48 337.911 3582.78 368.842C3580.66 376.361 3579.73 384.641 3580.3 392.42C3584.19 445.022 3635.84 457.85 3666.76 439.286C3689.19 425.821 3695.94 404.745 3693.86 380.29C3691.93 357.552 3680.22 341.165 3657.35 331.575Z" fill="white"/>
<path d="M3623.46 420.155C3622.83 430.262 3616.56 424.944 3611.94 426.346C3611.94 400.229 3611.94 375.146 3611.94 349.225C3624.2 349.225 3636.13 348.541 3647.94 349.424C3659.05 350.254 3665.87 357.073 3667.35 366.389C3669.3 378.75 3664.97 387.317 3654.08 392.478C3652.65 393.16 3651.09 393.599 3648.39 394.595C3655.47 404.806 3662.15 414.435 3668.92 424.202C3658.34 428.038 3656.3 427.47 3650.96 419.707C3646.63 413.418 3642.01 407.309 3638.05 400.796C3634.89 395.597 3631.15 392.894 3623.55 395.43C3623.52 402.982 3623.49 411.118 3623.46 420.155ZM3640.19 360.366C3634.98 360.366 3629.76 360.366 3624.14 360.366C3624.14 368.358 3624.14 375.38 3624.14 383.004C3631.68 383.004 3638.58 383.128 3645.48 382.958C3649.83 382.852 3653.2 380.467 3654.67 376.519C3656.21 372.38 3656.46 367.508 3652.67 364.606C3649.75 362.371 3645.61 361.725 3640.19 360.366Z" fill="white"/>
</svg>
